<?xml version="1.0" encoding="utf-8"?>
<!-- Generator: Adobe Illustrator 23.0.2, SVG Export Plug-In . SVG Version: 6.00 Build 0)  -->
<svg version="1.1" id="Layer_1" xmlns="http://www.w3.org/2000/svg" xmlns:xlink="http://www.w3.org/1999/xlink" x="0px" y="0px"
	 viewBox="0 0 708.12 85.17" style="enable-background:new 0 0 708.12 85.17;" xml:space="preserve">
<style type="text/css">
	.st0{fill:#3A51BB;}
	.st1{fill:#F3F4F5;}
	.st2{fill:#5E83F7;}
	.st3{fill:url(#SVGID_1_);}
	.st4{fill:none;stroke:#000000;stroke-width:2;stroke-linecap:round;stroke-linejoin:round;stroke-miterlimit:10;}
	.st5{fill:none;stroke:#000000;stroke-width:3;stroke-linecap:round;stroke-linejoin:round;stroke-miterlimit:10;}
	.st6{fill-rule:evenodd;clip-rule:evenodd;fill:url(#SVGID_2_);}
	.st7{fill-rule:evenodd;clip-rule:evenodd;fill:url(#SVGID_3_);}
	.st8{fill-rule:evenodd;clip-rule:evenodd;fill:url(#SVGID_4_);}
	.st9{fill-rule:evenodd;clip-rule:evenodd;fill:url(#SVGID_5_);}
	.st10{fill-rule:evenodd;clip-rule:evenodd;fill:url(#SVGID_6_);}
	.st11{fill-rule:evenodd;clip-rule:evenodd;fill:url(#SVGID_7_);}
	.st12{fill-rule:evenodd;clip-rule:evenodd;fill:url(#SVGID_8_);}
	.st13{fill-rule:evenodd;clip-rule:evenodd;fill:url(#SVGID_9_);}
	.st14{fill-rule:evenodd;clip-rule:evenodd;fill:url(#SVGID_10_);}
	.st15{fill-rule:evenodd;clip-rule:evenodd;fill:url(#SVGID_11_);}
	.st16{fill-rule:evenodd;clip-rule:evenodd;fill:url(#SVGID_12_);}
	.st17{fill-rule:evenodd;clip-rule:evenodd;fill:url(#SVGID_13_);}
	.st18{fill-rule:evenodd;clip-rule:evenodd;fill:url(#SVGID_14_);}
	.st19{fill-rule:evenodd;clip-rule:evenodd;fill:url(#SVGID_15_);}
	.st20{fill-rule:evenodd;clip-rule:evenodd;fill:url(#SVGID_16_);}
	.st21{fill-rule:evenodd;clip-rule:evenodd;fill:url(#SVGID_17_);}
	.st22{fill-rule:evenodd;clip-rule:evenodd;fill:url(#SVGID_18_);}
	.st23{fill-rule:evenodd;clip-rule:evenodd;fill:url(#SVGID_19_);}
	.st24{fill-rule:evenodd;clip-rule:evenodd;fill:url(#SVGID_20_);}
	.st25{fill-rule:evenodd;clip-rule:evenodd;fill:url(#SVGID_21_);}
	.st26{fill-rule:evenodd;clip-rule:evenodd;fill:url(#SVGID_22_);}
	.st27{fill-rule:evenodd;clip-rule:evenodd;fill:url(#SVGID_23_);}
	.st28{fill-rule:evenodd;clip-rule:evenodd;fill:url(#SVGID_24_);}
	.st29{fill-rule:evenodd;clip-rule:evenodd;fill:url(#SVGID_25_);}
	.st30{fill-rule:evenodd;clip-rule:evenodd;fill:url(#SVGID_26_);}
	.st31{fill-rule:evenodd;clip-rule:evenodd;fill:url(#SVGID_27_);}
	.st32{fill-rule:evenodd;clip-rule:evenodd;fill:#B6BDCD;}
	.st33{fill:#6585C9;}
	.st34{fill:#FFFFFF;}
	.st35{fill:#FFEDDE;}
	.st36{fill-rule:evenodd;clip-rule:evenodd;}
	.st37{fill-rule:evenodd;clip-rule:evenodd;fill:#FFFFFF;}
	.st38{fill-rule:evenodd;clip-rule:evenodd;fill:#778298;}
	.st39{fill:#FF0000;}
	.st40{fill-rule:evenodd;clip-rule:evenodd;fill:#FF0000;}
	.st41{fill-rule:evenodd;clip-rule:evenodd;fill:#0F1015;}
	.st42{fill-rule:evenodd;clip-rule:evenodd;fill:#860000;}
	.st43{fill-rule:evenodd;clip-rule:evenodd;fill:#006633;}
	.st44{fill-rule:evenodd;clip-rule:evenodd;fill:#33CB66;}
	.st45{fill-rule:evenodd;clip-rule:evenodd;fill:#D9750B;}
	.st46{fill-rule:evenodd;clip-rule:evenodd;fill:#FFBD1A;}
	.st47{fill-rule:evenodd;clip-rule:evenodd;fill:#CB33FF;}
	.st48{fill:#CB33FF;}
	.st49{fill:#61179A;}
	.st50{fill-rule:evenodd;clip-rule:evenodd;fill:#61179A;}
	.st51{fill:none;}
	.st52{fill:none;stroke:#000000;stroke-width:4;}
	.st53{fill:#050607;}
	.st54{fill:#213A7F;}
	.st55{fill-rule:evenodd;clip-rule:evenodd;fill:#3A51BB;}
	.st56{fill-rule:evenodd;clip-rule:evenodd;fill:#213A7F;}
	.st57{fill:none;stroke:#000000;stroke-width:1.5;stroke-miterlimit:10;}
	.st58{fill:none;stroke:#5E83F7;stroke-width:3;stroke-miterlimit:10;}
	.st59{fill:#000047;}
	.st60{fill:#151B2B;}
	.st61{fill:url(#SVGID_28_);}
	.st62{fill:url(#SVGID_29_);}
	.st63{fill:#1AA3FF;}
	.st64{fill:url(#SVGID_30_);}
	.st65{fill:url(#SVGID_31_);}
	.st66{fill:url(#SVGID_32_);}
	.st67{fill:url(#SVGID_33_);}
	.st68{fill:url(#SVGID_34_);}
	.st69{fill:url(#SVGID_35_);}
	.st70{fill:url(#SVGID_36_);}
	.st71{fill:url(#SVGID_37_);}
	.st72{fill:url(#SVGID_38_);}
	.st73{fill:url(#SVGID_39_);}
	.st74{fill:url(#SVGID_40_);}
	.st75{fill:url(#SVGID_41_);}
	.st76{fill:url(#SVGID_42_);}
	.st77{fill:url(#SVGID_43_);}
	.st78{fill:url(#SVGID_44_);}
</style>
<g>
	<g>
		<path class="st34" d="M33.39,82.35H0V2.82h33.62c7.14,0,13.07,2.03,17.77,6.09c4.7,4.06,7.05,9.18,7.05,15.34
			c0,4.06-1.18,7.67-3.55,10.83c-2.37,3.16-5.43,5.23-9.19,6.2c4.44,1.05,8.05,3.33,10.83,6.83c2.78,3.5,4.17,7.5,4.17,12.01
			c0,6.39-2.58,11.7-7.73,15.91C47.81,80.25,41.29,82.35,33.39,82.35z M32.49,11.17H9.36v26.06h23.13c4.89,0,8.87-1.2,11.96-3.61
			c3.08-2.41,4.63-5.53,4.63-9.36c0-3.76-1.56-6.88-4.68-9.36C41.27,12.41,37.3,11.17,32.49,11.17z M32.15,45.58H9.36V74h22.79
			c5.56,0,10.15-1.35,13.76-4.06c3.61-2.71,5.42-6.13,5.42-10.27c0-4.14-1.8-7.52-5.42-10.15C42.3,46.89,37.72,45.58,32.15,45.58z"
			/>
		<path class="st34" d="M100.06,76.82c4.29,0,8.27-1.09,11.96-3.27c3.68-2.18,6.24-4.89,7.67-8.12l7.67,2.82
			c-1.81,4.74-5.23,8.65-10.27,11.73c-5.04,3.08-10.53,4.63-16.47,4.63c-8.88,0-16.21-2.95-22-8.86c-5.79-5.9-8.69-13.41-8.69-22.51
			c0-8.72,2.84-15.92,8.52-21.6c5.68-5.68,12.92-8.52,21.72-8.52c8.65,0,15.79,2.86,21.43,8.57c5.64,5.72,8.46,12.94,8.46,21.66
			c0,1.43-0.04,2.56-0.11,3.38l-51.22-0.11c0.68,6.02,2.99,10.89,6.94,14.61C89.63,74.96,94.42,76.82,100.06,76.82z M78.97,49.19
			l42.08,0.11c-0.83-5.42-3.16-9.82-6.99-13.2c-3.84-3.38-8.57-5.08-14.21-5.08c-5.49,0-10.14,1.67-13.93,5.02
			C82.11,39.39,79.8,43.77,78.97,49.19z"/>
		<path class="st34" d="M145.08,68.25V32.49h-9.36v-7.11h9.7l1.24-13.31h6.99v13.31h14.78v7.11h-14.78v35.42
			c0,2.78,0.79,5.02,2.37,6.71c1.58,1.69,3.72,2.58,6.43,2.65c2.18,0,4.47-0.38,6.88-1.13v7.11c-2.93,0.9-5.94,1.35-9.02,1.35
			c-4.66,0-8.37-1.49-11.11-4.46C146.45,77.18,145.08,73.22,145.08,68.25z"/>
		<path class="st63" d="M211.63,85.17c-9.78,0-17.81-2.69-24.09-8.07c-6.28-5.38-9.42-12.2-9.42-20.48h9.36
			c0,5.87,2.27,10.7,6.83,14.5c4.55,3.8,10.4,5.7,17.54,5.7c6.39,0,11.51-1.47,15.34-4.4c3.84-2.93,5.75-6.54,5.75-10.83
			c0-2.93-0.98-5.38-2.93-7.33c-1.96-1.95-4.51-3.42-7.67-4.4c-3.16-0.98-6.62-1.84-10.38-2.59c-3.84-0.75-7.67-1.62-11.51-2.6
			c-3.84-0.98-7.33-2.18-10.49-3.61c-3.16-1.43-5.72-3.54-7.67-6.32c-1.96-2.78-2.93-6.2-2.93-10.27c0-7.14,2.78-13.01,8.35-17.6
			C193.28,2.29,200.5,0,209.38,0c9.1,0,16.6,2.54,22.51,7.61c5.9,5.08,8.86,11.53,8.86,19.35h-9.14c0.07-5.42-1.99-9.87-6.2-13.37
			c-4.21-3.5-9.55-5.25-16.02-5.25c-6.17,0-11.15,1.39-14.95,4.17c-3.8,2.78-5.7,6.28-5.7,10.49c0,2.86,0.98,5.23,2.93,7.11
			c1.95,1.88,4.51,3.31,7.67,4.29c3.16,0.98,6.66,1.84,10.49,2.59c3.76,0.75,7.56,1.62,11.39,2.6c3.84,0.98,7.33,2.22,10.49,3.72
			c3.16,1.51,5.71,3.69,7.67,6.54c1.95,2.86,2.93,6.32,2.93,10.38c0,7.22-2.8,13.18-8.4,17.88
			C228.31,82.82,220.89,85.17,211.63,85.17z"/>
		<path class="st63" d="M308.54,82.35l-13.65-46.93l-13.65,46.93h-11.73l-19.29-56.97h9.03l16.24,48.51l14.33-48.51h10.04
			l14.78,48.51l16.02-48.51h9.02l-19.4,56.97H308.54z"/>
		<path class="st63" d="M375.89,76.82c4.29,0,8.27-1.09,11.96-3.27c3.68-2.18,6.24-4.89,7.67-8.12l7.67,2.82
			c-1.81,4.74-5.23,8.65-10.27,11.73c-5.04,3.08-10.53,4.63-16.47,4.63c-8.88,0-16.21-2.95-22-8.86c-5.79-5.9-8.69-13.41-8.69-22.51
			c0-8.72,2.84-15.92,8.52-21.6c5.68-5.68,12.92-8.52,21.72-8.52c8.65,0,15.79,2.86,21.43,8.57c5.64,5.72,8.46,12.94,8.46,21.66
			c0,1.43-0.04,2.56-0.11,3.38l-51.22-0.11c0.68,6.02,2.99,10.89,6.94,14.61C365.45,74.96,370.25,76.82,375.89,76.82z M354.79,49.19
			l42.08,0.11c-0.83-5.42-3.16-9.82-6.99-13.2c-3.84-3.38-8.57-5.08-14.21-5.08c-5.49,0-10.14,1.67-13.93,5.02
			C357.93,39.39,355.62,43.77,354.79,49.19z"/>
		<path class="st63" d="M456.77,29.67c3.99,4.36,5.98,10.15,5.98,17.37v35.31h-8.46v-9.02c-1.96,3.23-4.83,5.92-8.63,8.07
			c-3.8,2.14-7.69,3.22-11.68,3.22c-6.24,0-11.34-1.7-15.29-5.09c-3.95-3.4-5.92-7.96-5.92-13.68c0-3.74,1.03-7.12,3.1-10.13
			c2.07-3.01,4.83-5.32,8.29-6.93c3.46-1.6,7.26-2.4,11.39-2.4c5.79,0,12.03,1.05,18.73,3.16v-2.14c0-4.75-1.18-8.77-3.55-12.08
			c-2.37-3.3-6.41-4.96-12.13-4.96c-2.56,0-5.21,0.45-7.95,1.35c-2.75,0.9-5.7,2.18-8.86,3.84l-3.38-6.77
			c7.45-3.76,14.36-5.64,20.76-5.64C446.92,23.13,452.79,25.31,456.77,29.67z M447.19,73.98c3.68-2.2,6.05-5.26,7.11-9.19v-9.01
			c-5.64-1.62-11.43-2.43-17.37-2.43c-4.44,0-8.2,1.16-11.28,3.47c-3.08,2.31-4.62,5.2-4.62,8.66c0,3.62,1.35,6.49,4.06,8.61
			c2.71,2.12,6.17,3.18,10.38,3.18C439.59,77.28,443.5,76.18,447.19,73.98z"/>
		<path class="st63" d="M480.69,68.25V32.49h-9.36v-7.11h9.7l1.24-13.31h6.99v13.31h14.78v7.11h-14.78v35.42
			c0,2.78,0.79,5.02,2.37,6.71c1.58,1.69,3.72,2.58,6.43,2.65c2.18,0,4.47-0.38,6.88-1.13v7.11c-2.93,0.9-5.94,1.35-9.02,1.35
			c-4.66,0-8.37-1.49-11.11-4.46C482.06,77.18,480.69,73.22,480.69,68.25z"/>
		<path class="st34" d="M541.72,76.04l18.5-73.22h13.76l18.05,73.22l20.53-73.22h9.7l-22.56,79.53h-15.12l-17.71-69.72l-17.6,69.72
			h-15.23L511.37,2.82h9.82L541.72,76.04z"/>
		<path class="st34" d="M633.38,13.26c-1.09-1.09-1.64-2.5-1.64-4.23c0-1.73,0.55-3.12,1.64-4.17c1.09-1.05,2.5-1.58,4.23-1.58
			c1.73,0,3.14,0.55,4.23,1.64c1.09,1.09,1.64,2.46,1.64,4.12c0,1.66-0.55,3.05-1.64,4.17c-1.09,1.13-2.5,1.69-4.23,1.69
			C635.88,14.89,634.47,14.35,633.38,13.26z M641.9,82.35h-8.57V25.38h8.57V82.35z"/>
		<path class="st34" d="M684.65,23.13c7.14,0,12.84,2.35,17.09,7.05c4.25,4.7,6.37,10.74,6.37,18.11v34.07h-8.57V48.28
			c0-5.11-1.41-9.27-4.23-12.47c-2.82-3.2-6.68-4.79-11.56-4.79c-5.04,0-9.4,1.73-13.09,5.19c-3.69,3.46-5.53,7.75-5.53,12.86v33.28
			h-8.57V25.38h8.57v8.01c1.95-3.16,4.7-5.66,8.24-7.5C676.91,24.05,680.67,23.13,684.65,23.13z"/>
	</g>
</g>
</svg>
